# xmcd
#
# Track frame offsets:
#	150
#	4589
#	9215
#	36539
#	92103
#	128470
#	134557
#	154724
#	171697
#	210237
#	217972
#	231011
#
# Disc length: 3794 seconds
#
# Revision: 1
# Processed by: cddbd v1.5.1PL2 Copyright (c) Steve Scherf et al.
# Submitted via: CDmax 1.9
#
DISCID=960ed00c
DTITLE=Diana Cooper - Karma Release Mediation
DYEAR=1900
DGENRE=New Age
TTITLE0=Karma 01
TTITLE1=Karma 02
TTITLE2=Karma 03
TTITLE3=Karma 04
TTITLE4=Karma 05
TTITLE5=Karma 06
TTITLE6=Karma 07
TTITLE7=Karma 08
TTITLE8=Karma 09
TTITLE9=Karma 10
TTITLE10=Karma 11
TTITLE11=Karma 12
EXTD=
EXTT0=
EXTT1=
EXTT2=
EXTT3=
EXTT4=
EXTT5=
EXTT6=
EXTT7=
EXTT8=
EXTT9=
EXTT10=
EXTT11=
PLAYORDER=
